REM DIRINDEX 1\2\6,1\2\7,1\2\8,1\2\9,1\3\10,1\3\11,1\4\12,1\4\13,1\4\14,1\5\15,1\5\16,1\5\17
REM DIRNAME cjc029,folder01,folder02,folder03,folder04,folder05,folder06,folder07,folder08,folder09,folder10,folder11,folder12,folder13,folder14,folder15,folder16
TITLE ""
FILE "1400_2_sec10_0985_1000.mp3" MP3
  TRACK 01 AUDIO
    TITLE "0:"
    INDEX 01 00:00:00
  TRACK 02 AUDIO
    TITLE "13:cjc029_3576"
    INDEX 01 00:00:17
  TRACK 03 AUDIO
    TITLE "0:"
    INDEX 01 00:01:32
  TRACK 04 AUDIO
    TITLE "14:cjc029_3577"
    INDEX 01 00:01:36
  TRACK 05 AUDIO
    TITLE "0:"
    INDEX 01 00:02:61
  TRACK 06 AUDIO
    TITLE "13:cjc029_3578"
    INDEX 01 00:03:45
  TRACK 07 AUDIO
    TITLE "0:"
    INDEX 01 00:04:62
  TRACK 08 AUDIO
    TITLE "14:cjc029_3579"
    INDEX 01 00:04:68
  TRACK 09 AUDIO
    TITLE "0:"
    INDEX 01 00:07:13
  TRACK 10 AUDIO
    TITLE "13:cjc029_3580"
    INDEX 01 00:07:70
  TRACK 11 AUDIO
    TITLE "0:"
    INDEX 01 00:09:02
  TRACK 12 AUDIO
    TITLE "14:cjc029_3581"
    INDEX 01 00:09:08
  TRACK 13 AUDIO
    TITLE "0:"
    INDEX 01 00:11:44
  TRACK 14 AUDIO
    TITLE "13:cjc029_3582"
    INDEX 01 00:12:26
  TRACK 15 AUDIO
    TITLE "0:"
    INDEX 01 00:13:43
  TRACK 16 AUDIO
    TITLE "14:cjc029_3583"
    INDEX 01 00:13:49
  TRACK 17 AUDIO
    TITLE "0:"
    INDEX 01 00:16:28
  TRACK 18 AUDIO
    TITLE "13:cjc029_3584"
    INDEX 01 00:17:10
  TRACK 19 AUDIO
    TITLE "0:"
    INDEX 01 00:18:31
  TRACK 20 AUDIO
    TITLE "14:cjc029_3585"
    INDEX 01 00:18:33
  TRACK 21 AUDIO
    TITLE "0:"
    INDEX 01 00:23:73
  TRACK 22 AUDIO
    TITLE "13:cjc029_3586"
    INDEX 01 00:24:63
  TRACK 23 AUDIO
    TITLE "0:"
    INDEX 01 00:26:07
  TRACK 24 AUDIO
    TITLE "14:cjc029_3587"
    INDEX 01 00:26:15
  TRACK 25 AUDIO
    TITLE "0:"
    INDEX 01 00:29:46
  TRACK 26 AUDIO
    TITLE "13:cjc029_3588"
    INDEX 01 00:30:28
  TRACK 27 AUDIO
    TITLE "0:"
    INDEX 01 00:31:43
  TRACK 28 AUDIO
    TITLE "14:cjc029_3589"
    INDEX 01 00:31:49
  TRACK 29 AUDIO
    TITLE "0:"
    INDEX 01 00:34:16
  TRACK 30 AUDIO
    TITLE "13:cjc029_3590"
    INDEX 01 00:34:73
  TRACK 31 AUDIO
    TITLE "0:"
    INDEX 01 00:36:23
  TRACK 32 AUDIO
    TITLE "14:cjc029_3591"
    INDEX 01 00:36:29
  TRACK 33 AUDIO
    TITLE "0:"
    INDEX 01 00:40:64
  TRACK 34 AUDIO
    TITLE "13:cjc029_3592"
    INDEX 01 00:41:45
  TRACK 35 AUDIO
    TITLE "0:"
    INDEX 01 00:42:70
  TRACK 36 AUDIO
    TITLE "14:cjc029_3593"
    INDEX 01 00:43:03
  TRACK 37 AUDIO
    TITLE "0:"
    INDEX 01 00:45:65
  TRACK 38 AUDIO
    TITLE "13:cjc029_3594"
    INDEX 01 00:46:45
  TRACK 39 AUDIO
    TITLE "0:"
    INDEX 01 00:47:58
  TRACK 40 AUDIO
    TITLE "14:cjc029_3595"
    INDEX 01 00:47:68
  TRACK 41 AUDIO
    TITLE "0:"
    INDEX 01 00:50:29
  TRACK 42 AUDIO
    TITLE "13:cjc029_3596"
    INDEX 01 00:51:11
  TRACK 43 AUDIO
    TITLE "0:"
    INDEX 01 00:52:37
  TRACK 44 AUDIO
    TITLE "14:cjc029_3597"
    INDEX 01 00:52:45
  TRACK 45 AUDIO
    TITLE "0:"
    INDEX 01 00:54:05
  TRACK 46 AUDIO
    TITLE "13:cjc029_3598"
    INDEX 01 00:54:60
  TRACK 47 AUDIO
    TITLE "0:"
    INDEX 01 00:56:04
  TRACK 48 AUDIO
    TITLE "14:cjc029_3599"
    INDEX 01 00:56:10
  TRACK 49 AUDIO
    TITLE "0:"
    INDEX 01 00:58:46
  TRACK 50 AUDIO
    TITLE "13:cjc029_3600"
    INDEX 01 00:59:26
  TRACK 51 AUDIO
    TITLE "0:"
    INDEX 01 01:00:31
  TRACK 52 AUDIO
    TITLE "14:cjc029_3601"
    INDEX 01 01:00:41
  TRACK 53 AUDIO
    TITLE "0:"
    INDEX 01 01:04:70
  TRACK 54 AUDIO
    TITLE "13:cjc029_3602"
    INDEX 01 01:05:52
  TRACK 55 AUDIO
    TITLE "0:"
    INDEX 01 01:07:14
  TRACK 56 AUDIO
    TITLE "14:cjc029_3603"
    INDEX 01 01:07:19
  TRACK 57 AUDIO
    TITLE "0:"
    INDEX 01 01:08:70
  TRACK 58 AUDIO
    TITLE "13:cjc029_3604"
    INDEX 01 01:09:52
  TRACK 59 AUDIO
    TITLE "0:"
    INDEX 01 01:10:65
  TRACK 60 AUDIO
    TITLE "14:cjc029_3605"
    INDEX 01 01:10:71
  TRACK 61 AUDIO
    TITLE "0:"
    INDEX 01 01:12:28
  TRACK 62 AUDIO
    TITLE "13:cjc029_3606"
    INDEX 01 01:13:10
  TRACK 63 AUDIO
    TITLE "0:"
    INDEX 01 01:14:17
  TRACK 64 AUDIO
    TITLE "14:cjc029_3607"
    INDEX 01 01:14:19
  TRACK 65 AUDIO
    TITLE "0:"
    INDEX 01 01:18:07
